<svg width="104" height="106" viewBox="0 0 104 106" fill="none" xmlns="http://www.w3.org/2000/svg">
<path d="M32.084 26.7479L74.896 27.4647L54.0354 0.641068L32.084 26.7479Z" fill="#FF725E"/>
<path d="M51.968 47.7851H44.7167V55.0364H51.968V47.7851Z" fill="#FF725E"/>
<path d="M58.1908 55.1195H51.968V61.3423H58.1908V55.1195Z" fill="#FF725E"/>
<path d="M50.285 62.7136H44.7167V68.2924H50.285V62.7136Z" fill="#FF725E"/>
<path d="M63.7593 49.52H58.1909V55.0987H63.7593V49.52Z" fill="#FF725E"/>
<path d="M44.7168 55.722H40.7379V59.7009H44.7168V55.722Z" fill="#FF725E"/>
<path d="M62.1698 61.9345H58.1909V65.9134H62.1698V61.9345Z" fill="#FF725E"/>
<path d="M63.832 23.6209L41.6832 23.5066L41.517 49.6238H63.832V23.6209ZM56.0716 44.9905H52.0927V41.0116H56.0716V44.9905Z" fill="#FF725E"/>
<path d="M10.0207 75.9631C14.3373 75.9631 17.472 78.1728 18.4227 81.8728H13.5665C12.8984 80.6652 11.6651 80.0228 10.0207 80.0228C7.19435 80.0228 5.31868 82.027 5.31868 85.1616C5.31868 88.5019 7.22005 90.4546 10.3804 90.4546C12.5644 90.4546 14.0804 89.2984 14.7484 87.2686H9.1728V84.0311H18.731V88.1165C17.806 91.2254 14.7998 94.3344 10.0464 94.3344C4.65064 94.3344 0.847906 90.5574 0.847906 85.1616C0.847906 79.7659 4.62494 75.9631 10.0207 75.9631ZM20.2911 87.0116C20.2911 82.4894 23.0918 79.6631 26.6119 79.6631C28.7445 79.6631 30.2604 80.6395 31.0313 81.8985V79.8686H35.425V94.206H31.0313V92.1761C30.2347 93.4351 28.7188 94.4115 26.5862 94.4115C23.0918 94.4115 20.2911 91.5338 20.2911 87.0116ZM31.0313 87.0373C31.0313 84.7505 29.5667 83.4915 27.8966 83.4915C26.2522 83.4915 24.7619 84.7248 24.7619 87.0116C24.7619 89.2984 26.2522 90.5831 27.8966 90.5831C29.5667 90.5831 31.0313 89.3241 31.0313 87.0373ZM37.73 87.0116C37.73 82.4894 40.5307 79.6631 44.0508 79.6631C45.9521 79.6631 47.5965 80.5367 48.4701 81.8471V75.1923H52.8638V94.206H48.4701V92.1504C47.6736 93.4608 46.1577 94.4115 44.0508 94.4115C40.5307 94.4115 37.73 91.5338 37.73 87.0116ZM48.4701 87.0373C48.4701 84.7505 47.0056 83.4915 45.3355 83.4915C43.691 83.4915 42.2008 84.7248 42.2008 87.0116C42.2008 89.2984 43.691 90.5831 45.3355 90.5831C47.0056 90.5831 48.4701 89.3241 48.4701 87.0373ZM55.1689 87.0116C55.1689 82.4894 57.9695 79.6631 61.4896 79.6631C63.5965 79.6631 65.1382 80.6138 65.909 81.8985V79.8686H70.3027V94.1803C70.3027 98.0087 68.093 101.272 63.1341 101.272C58.8688 101.272 56.0939 99.1135 55.7085 95.6962H60.0508C60.3334 96.7754 61.4126 97.4691 62.9285 97.4691C64.5986 97.4691 65.909 96.5955 65.909 94.1803V92.1504C65.1125 93.4094 63.5965 94.4115 61.4896 94.4115C57.9695 94.4115 55.1689 91.5338 55.1689 87.0116ZM65.909 87.0373C65.909 84.7505 64.4445 83.4915 62.7743 83.4915C61.1299 83.4915 59.6397 84.7248 59.6397 87.0116C59.6397 89.2984 61.1299 90.5831 62.7743 90.5831C64.4445 90.5831 65.909 89.3241 65.909 87.0373ZM79.8021 83.1832C78.3632 83.1832 77.2584 84.0568 77.0015 85.6498H82.5C82.5 84.0825 81.2667 83.1832 79.8021 83.1832ZM86.6624 89.4526C85.9687 92.2532 83.425 94.4115 79.8535 94.4115C75.6397 94.4115 72.6078 91.5852 72.6078 87.0373C72.6078 82.4894 75.5883 79.6631 79.8535 79.6631C84.0416 79.6631 86.9965 82.4381 86.9965 86.8061C86.9965 87.2172 86.9708 87.654 86.9194 88.0908H76.9758C77.1299 89.9664 78.2862 90.84 79.6993 90.84C80.9327 90.84 81.6264 90.2234 81.9861 89.4526H86.6624ZM88.4407 87.0373C88.4407 82.5151 91.4213 79.6631 95.6351 79.6631C99.2323 79.6631 101.776 81.6415 102.521 85.0589H97.8448C97.4851 84.0568 96.7656 83.4144 95.558 83.4144C93.9907 83.4144 92.9115 84.6478 92.9115 87.0373C92.9115 89.4269 93.9907 90.6602 95.558 90.6602C96.7656 90.6602 97.4594 90.0692 97.8448 89.0158H102.521C101.776 92.3303 99.2323 94.4115 95.6351 94.4115C91.4213 94.4115 88.4407 91.5852 88.4407 87.0373Z" fill="#FF725E"/>
</svg>
