<svg width="270" height="269" viewBox="0 0 270 269" fill="none" xmlns="http://www.w3.org/2000/svg">
<path d="M205.656 95.5219H200.179V100.999H205.656V95.5219Z" fill="#E0E0E0"/>
<path d="M202.605 152.082H197.128V157.559H202.605V152.082Z" fill="#E0E0E0"/>
<path d="M211.267 167.808H202.998V176.077H211.267V167.808Z" fill="#E0E0E0"/>
<path d="M75.6909 156.886H67.4218V165.155H75.6909V156.886Z" fill="#E0E0E0"/>
<path d="M63.8118 149.682H58.4695V155.025H63.8118V149.682Z" fill="#E0E0E0"/>
<path d="M78.3647 182.011H73.0224V187.353H78.3647V182.011Z" fill="#E0E0E0"/>
<path d="M55.8656 110.979H51.9974V114.847H55.8656V110.979Z" fill="#E0E0E0"/>
<path d="M219.584 103.974H217.54V106.018H219.584V103.974Z" fill="#E0E0E0"/>
<path d="M200.098 86.7525H196.94V89.9106H200.098V86.7525Z" fill="#E0E0E0"/>
<path d="M216.125 149.306H212.967V152.464H216.125V149.306Z" fill="#E0E0E0"/>
<path d="M74.2436 99.8205H68.8744V105.19H74.2436V99.8205Z" fill="#E0E0E0"/>
<path d="M19.6044 98.0666L38.16 98.3787L29.1216 86.7525L19.6044 98.0666Z" fill="#F5F5F5"/>
<path d="M28.2285 107.186H25.0812V110.333H28.2285V107.186Z" fill="#F5F5F5"/>
<path d="M31.2306 110.629H28.0833V113.776H31.2306V110.629Z" fill="#F5F5F5"/>
<path d="M27.4969 114.863H25.0812V117.279H27.4969V114.863Z" fill="#F5F5F5"/>
<path d="M33.3341 107.939H30.9185V110.355H33.3341V107.939Z" fill="#F5F5F5"/>
<path d="M25.0812 110.898H23.3542V112.625H25.0812V110.898Z" fill="#F5F5F5"/>
<path d="M30.09 120.318H28.0725V118.295H30.09V120.318ZM28.363 120.017H29.7887V118.597H28.3738L28.363 120.017Z" fill="#F5F5F5"/>
<path d="M32.9952 113.604H31.2682V115.331H32.9952V113.604Z" fill="#F5F5F5"/>
<path d="M33.1136 96.5495L24.2635 96.6517L23.6932 107.982H33.3772L33.1136 96.5495ZM29.9985 105.986H28.2769V104.264H29.9985V105.986Z" fill="#F5F5F5"/>
<path d="M23.9998 209.739L54.0417 210.277L39.4028 190.802L23.9998 209.739Z" fill="#EBEBEB"/>
<path d="M37.9502 225.002H32.8607V230.264H37.9502V225.002Z" fill="#EBEBEB"/>
<path d="M42.8137 230.77H37.7242V236.031H42.8137V230.77Z" fill="#EBEBEB"/>
<path d="M36.772 237.861H32.8607V241.906H36.772V237.861Z" fill="#EBEBEB"/>
<path d="M46.23 226.267H42.3187V230.312H46.23V226.267Z" fill="#EBEBEB"/>
<path d="M32.8607 231.222H30.0685V234.111H32.8607V231.222Z" fill="#EBEBEB"/>
<path d="M40.9899 246.99H37.7081V243.601H40.9899V246.99ZM38.1976 246.49H40.5003V244.101H38.1976V246.49Z" fill="#EBEBEB"/>
<path d="M45.6705 235.746H42.8782V238.635H45.6705V235.746Z" fill="#EBEBEB"/>
<path d="M45.8695 207.2L31.5372 207.377L30.628 226.342H46.2784L45.8695 207.2ZM40.85 222.979H38.0362V220.096H40.85V222.979Z" fill="#EBEBEB"/>
<path d="M30.628 41.2108L61.6383 41.7488L46.542 22.3001L30.628 41.2108Z" fill="#E0E0E0"/>
<path d="M45.041 56.447H39.7847V61.7032H45.041V56.447Z" fill="#E0E0E0"/>
<path d="M50.0605 62.2036H44.8043V67.4598H50.0605V62.2036Z" fill="#E0E0E0"/>
<path d="M43.8197 69.2836H39.7847V73.3186H43.8197V69.2836Z" fill="#E0E0E0"/>
<path d="M53.5844 57.7113H49.5494V61.7463H53.5844V57.7113Z" fill="#E0E0E0"/>
<path d="M39.7847 62.6609H36.9011V65.5445H39.7847V62.6609Z" fill="#E0E0E0"/>
<path d="M48.1722 78.3974H44.7881V75.0133H48.1722V78.3974ZM45.2939 77.897H47.6718V75.5191H45.2939V77.897Z" fill="#E0E0E0"/>
<path d="M53.0088 67.1747H50.1251V70.0584H53.0088V67.1747Z" fill="#E0E0E0"/>
<path d="M53.224 38.6768L38.429 38.8544L37.4821 57.7866H53.6383L53.224 38.6768ZM48.0215 54.4295H45.154V51.5458H48.0377L48.0215 54.4295Z" fill="#E0E0E0"/>
<path d="M195.794 204.155L222.43 204.601L209.454 187.923L195.794 204.155Z" fill="#F5F5F5"/>
<path d="M208.146 217.244H203.633V221.758H208.146V217.244Z" fill="#F5F5F5"/>
<path d="M212.456 222.183H207.942V226.697H212.456V222.183Z" fill="#F5F5F5"/>
<path d="M207.103 228.263H203.633V231.733H207.103V228.263Z" fill="#F5F5F5"/>
<path d="M215.485 218.326H212.015V221.796H215.485V218.326Z" fill="#F5F5F5"/>
<path d="M203.627 222.576H201.152V225.051H203.627V222.576Z" fill="#F5F5F5"/>
<path d="M210.858 236.096H207.953V233.191H210.858V236.096ZM208.383 235.666H210.428V233.621H208.383V235.666Z" fill="#F5F5F5"/>
<path d="M214.984 226.455H212.51V228.93H214.984V226.455Z" fill="#F5F5F5"/>
<path d="M215.162 201.976L202.454 202.127L201.637 218.39H215.522L215.162 201.976ZM210.691 215.507H208.211V213.048H210.691V215.507Z" fill="#F5F5F5"/>
<path d="M187.256 31.0049L213.892 31.4515L200.91 14.7735L187.256 31.0049Z" fill="#F5F5F5"/>
<path d="M199.625 44.0945H195.111V48.6083H199.625V44.0945Z" fill="#F5F5F5"/>
<path d="M203.934 49.0333H199.42V53.5471H203.934V49.0333Z" fill="#F5F5F5"/>
<path d="M198.581 55.1127H195.111V58.5828H198.581V55.1127Z" fill="#F5F5F5"/>
<path d="M206.968 45.1759H203.498V48.646H206.968V45.1759Z" fill="#F5F5F5"/>
<path d="M195.111 49.4261H192.636V51.9009H195.111V49.4261Z" fill="#F5F5F5"/>
<path d="M202.315 62.946H199.409V60.0408H202.315V62.946ZM199.84 62.5156H201.884V60.4712H199.84V62.5156Z" fill="#F5F5F5"/>
<path d="M206.468 53.305H203.993V55.7798H206.468V53.305Z" fill="#F5F5F5"/>
<path d="M206.645 28.826L193.938 28.9767L193.104 45.2404H206.995L206.645 28.826ZM202.175 42.3567H199.7V39.8819H202.175V42.3567Z" fill="#F5F5F5"/>
<path d="M222.635 122.879L253.355 123.417L238.387 104.168L222.635 122.879Z" fill="#EBEBEB"/>
<path d="M236.903 137.975H231.695V143.183H236.903V137.975Z" fill="#EBEBEB"/>
<path d="M241.874 143.678H236.666V148.886H241.874V143.678Z" fill="#EBEBEB"/>
<path d="M235.697 150.688H231.695V154.691H235.697V150.688Z" fill="#EBEBEB"/>
<path d="M245.371 139.224H241.368V143.226H245.371V139.224Z" fill="#EBEBEB"/>
<path d="M231.695 144.13H228.838V146.987H231.695V144.13Z" fill="#EBEBEB"/>
<path d="M240.007 159.721H236.682V156.37H240.034L240.007 159.721ZM237.15 159.226H239.512V156.865H237.15V159.226Z" fill="#EBEBEB"/>
<path d="M244.795 148.601H241.938V151.458H244.795V148.601Z" fill="#EBEBEB"/>
<path d="M244.999 120.367L230.344 120.544L229.403 139.299H245.419L244.999 120.367ZM239.845 135.969H236.989V133.112H239.845V135.969Z" fill="#EBEBEB"/>
<path d="M256.846 258.982C256.846 259.063 204.122 259.122 139.024 259.122C73.9263 259.122 21.2023 259.063 21.2023 258.982C21.2023 258.902 73.9263 258.843 139.024 258.843C204.122 258.843 256.846 258.907 256.846 258.982Z" fill="#263238"/>
<path d="M171.046 258.982L97.8781 258.945C89.0764 258.945 81.9425 252.134 81.9479 243.746L81.9802 68.8963C81.9802 60.5035 89.1248 53.6978 97.9319 53.7032L171.1 53.7462C179.902 53.7462 187.035 60.5519 187.03 68.9393L186.998 243.789C186.976 252.188 179.837 258.988 171.046 258.982Z" fill="#263238"/>
<path d="M170.508 59.8955H156.332H114.906H97.4799C91.3144 59.8955 86.311 64.6515 86.311 70.5318L86.2734 241.196C86.2734 247.071 91.2714 251.838 97.4315 251.838L170.476 251.881C176.641 251.881 181.645 247.12 181.645 241.245L181.682 70.5748C181.682 64.6622 176.69 59.9009 170.508 59.8955Z" fill="white"/>
<path d="M165.15 75.0026H160.318V79.4034H165.15V75.0026Z" fill="#FF725E"/>
<path d="M113.007 74.5937H110.973V76.1969H113.007V74.5937Z" fill="#FF725E"/>
<path d="M160.34 71.6293H158.306V73.2326H160.34V71.6293Z" fill="#FF725E"/>
<path d="M143.936 63.484H140.837V66.3515H143.936V63.484Z" fill="#FF725E"/>
<path d="M111.635 79.4787H105.604V84.7942H111.635V79.4787Z" fill="#FF725E"/>
<path d="M131.379 67.7934H129.437V69.3966H131.379V67.7934Z" fill="#FF725E"/>
<path d="M155.713 71.6562H117.128L116.681 158.688H155.713V71.6562Z" fill="#FF725E"/>
<path d="M138.142 70.8385H133.946V74.3032H138.142V70.8385Z" fill="white"/>
<path d="M150.177 70.8923H146.147V76.5951H150.177V70.8923Z" fill="white"/>
<path d="M153.502 70.8062H150.839V75.6159H153.502V70.8062Z" fill="white"/>
<path d="M121.319 71.0698H117.719V76.1969H121.319V71.0698Z" fill="white"/>
<path d="M127.016 71.4195H125.058V75.0026H127.016V71.4195Z" fill="white"/>
<path d="M144.114 69.4881H140.289V72.6408H144.114V69.4881Z" fill="#FF725E"/>
<path d="M134.941 47.7152C134.935 48.033 134.834 48.3418 134.653 48.6029C134.472 48.8641 134.218 49.0659 133.922 49.1831C133.627 49.3004 133.304 49.3278 132.993 49.2619C132.682 49.196 132.397 49.0398 132.175 48.8129C131.952 48.5859 131.802 48.2983 131.742 47.9861C131.682 47.674 131.716 47.3511 131.839 47.0581C131.962 46.765 132.169 46.5148 132.434 46.3389C132.698 46.1629 133.009 46.069 133.327 46.0689C133.542 46.0689 133.754 46.1117 133.952 46.1948C134.15 46.2779 134.329 46.3997 134.48 46.553C134.63 46.7063 134.748 46.8881 134.827 47.0876C134.907 47.2872 134.945 47.5006 134.941 47.7152Z" fill="#FF725E"/>
<path d="M102.698 42.3729C103.596 42.3729 104.323 41.6358 104.323 40.7266C104.323 39.8174 103.596 39.0803 102.698 39.0803C101.801 39.0803 101.074 39.8174 101.074 40.7266C101.074 41.6358 101.801 42.3729 102.698 42.3729Z" fill="#FF725E"/>
<path d="M117.461 72.587H116.923L117.354 44.7939H98.5989L99.0293 44.342C99.1531 44.2128 102.064 41.114 102.747 40.6405L103.064 41.0709C102.618 41.4045 100.955 43.1046 99.8363 44.2559H117.886L117.461 72.587Z" fill="#FF725E"/>
<path d="M107.664 37.3426C107.686 37.6655 107.61 37.9875 107.446 38.2667C107.282 38.5458 107.038 38.7694 106.746 38.9082C106.454 39.047 106.126 39.0947 105.807 39.0451C105.487 38.9955 105.189 38.8509 104.953 38.6301C104.716 38.4093 104.551 38.1224 104.48 37.8067C104.408 37.4911 104.433 37.1612 104.552 36.86C104.67 36.5587 104.876 36.3 105.143 36.1175C105.411 35.9349 105.727 35.8369 106.05 35.8362C106.464 35.8231 106.866 35.9742 107.168 36.2565C107.47 36.5387 107.649 36.9292 107.664 37.3426Z" fill="#FF725E"/>
<path d="M110.666 33.5604C110.688 33.8834 110.612 34.2053 110.448 34.4845C110.284 34.7637 110.041 34.9872 109.748 35.126C109.456 35.2649 109.128 35.3126 108.809 35.263C108.489 35.2134 108.191 35.0688 107.955 34.848C107.718 34.6271 107.553 34.3403 107.482 34.0246C107.41 33.7089 107.435 33.3791 107.554 33.0778C107.672 32.7766 107.878 32.5179 108.145 32.3353C108.413 32.1528 108.729 32.0548 109.052 32.054C109.466 32.041 109.868 32.1921 110.17 32.4743C110.472 32.7566 110.651 33.1471 110.666 33.5604Z" fill="#FF725E"/>
<path d="M120.108 26.2705C120.878 26.2705 121.502 25.5961 121.502 24.7641C121.502 23.9322 120.878 23.2577 120.108 23.2577C119.339 23.2577 118.715 23.9322 118.715 24.7641C118.715 25.5961 119.339 26.2705 120.108 26.2705Z" fill="#FF725E"/>
<path d="M134.785 26.2921C134.783 26.5874 134.693 26.8755 134.528 27.12C134.362 27.3646 134.128 27.5546 133.854 27.6662C133.581 27.7777 133.28 27.8058 132.991 27.7469C132.701 27.688 132.436 27.5447 132.228 27.3351C132.02 27.1255 131.878 26.859 131.822 26.5691C131.765 26.2793 131.795 25.9792 131.908 25.7065C132.022 25.4338 132.214 25.2009 132.459 25.037C132.705 24.8731 132.994 24.7857 133.289 24.7857C133.687 24.7885 134.067 24.9485 134.347 25.2307C134.628 25.5129 134.785 25.8944 134.785 26.2921Z" fill="#FF725E"/>
<path d="M137.878 13.988C137.875 14.282 137.785 14.5686 137.619 14.8115C137.454 15.0544 137.22 15.2429 136.947 15.3533C136.675 15.4636 136.376 15.4908 136.088 15.4315C135.8 15.3722 135.536 15.229 135.329 15.0199C135.122 14.8109 134.982 14.5453 134.925 14.2567C134.869 13.9681 134.9 13.6693 135.013 13.3979C135.126 13.1265 135.317 12.8947 135.562 12.7317C135.807 12.5686 136.094 12.4816 136.388 12.4816C136.785 12.4844 137.165 12.6446 137.444 12.9269C137.724 13.2093 137.88 13.5908 137.878 13.988Z" fill="#FF725E"/>
<path d="M145.776 18.0553C146.581 18.0553 147.234 17.3808 147.234 16.5489C147.234 15.7169 146.581 15.0425 145.776 15.0425C144.971 15.0425 144.318 15.7169 144.318 16.5489C144.318 17.3808 144.971 18.0553 145.776 18.0553Z" fill="#FF725E"/>
<path d="M161.362 30.5207C161.34 30.7915 161.24 31.05 161.073 31.2647C160.907 31.4794 160.682 31.641 160.425 31.7298C160.168 31.8185 159.891 31.8306 159.628 31.7646C159.364 31.6985 159.126 31.5571 158.941 31.3577C158.757 31.1584 158.634 30.9096 158.589 30.6417C158.543 30.3739 158.577 30.0987 158.685 29.8496C158.794 29.6005 158.972 29.3884 159.199 29.2391C159.426 29.0898 159.692 29.0098 159.963 29.009C160.155 29.0159 160.343 29.0605 160.517 29.1404C160.69 29.2202 160.847 29.3336 160.977 29.4741C161.107 29.6146 161.208 29.7794 161.274 29.959C161.34 30.1386 161.37 30.3295 161.362 30.5207Z" fill="#FF725E"/>
<path d="M140.412 34.2007C140.402 34.4854 140.308 34.7608 140.142 34.9925C139.976 35.2242 139.746 35.402 139.479 35.5037C139.213 35.6055 138.923 35.6267 138.645 35.5647C138.367 35.5027 138.113 35.3603 137.915 35.1552C137.717 34.95 137.584 34.6913 137.532 34.411C137.481 34.1308 137.512 33.8416 137.624 33.5793C137.735 33.3169 137.921 33.0932 138.159 32.9358C138.396 32.7785 138.675 32.6945 138.96 32.6943C139.154 32.6978 139.346 32.7395 139.524 32.8171C139.702 32.8947 139.863 33.0067 139.998 33.1465C140.133 33.2864 140.239 33.4515 140.31 33.6324C140.381 33.8133 140.416 34.0064 140.412 34.2007Z" fill="#FF725E"/>
<path d="M146.868 33.7057C146.857 33.9904 146.762 34.2654 146.595 34.4965C146.428 34.7276 146.197 34.9045 145.931 35.0053C145.664 35.106 145.374 35.1262 145.096 35.0632C144.818 35.0002 144.565 34.8569 144.368 34.651C144.171 34.4452 144.038 34.1859 143.988 33.9055C143.937 33.6251 143.97 33.336 144.082 33.0741C144.194 32.8122 144.381 32.5891 144.619 32.4326C144.857 32.2761 145.136 32.1931 145.421 32.1939C145.616 32.1974 145.807 32.2394 145.986 32.3174C146.164 32.3954 146.325 32.5079 146.46 32.6484C146.594 32.789 146.699 32.9547 146.77 33.1362C146.84 33.3177 146.873 33.5112 146.868 33.7057Z" fill="#FF725E"/>
<path d="M164.703 37.4448C165.473 37.4448 166.096 36.7704 166.096 35.9384C166.096 35.1064 165.473 34.432 164.703 34.432C163.933 34.432 163.31 35.1064 163.31 35.9384C163.31 36.7704 163.933 37.4448 164.703 37.4448Z" fill="#FF725E"/>
<path d="M142.301 10.76C142.298 11.0543 142.207 11.341 142.041 11.5841C141.875 11.8271 141.641 12.0156 141.368 12.1258C141.095 12.2359 140.796 12.2628 140.508 12.2031C140.22 12.1433 139.956 11.9996 139.749 11.79C139.543 11.5804 139.403 11.3144 139.347 11.0254C139.291 10.7364 139.323 10.4374 139.437 10.1662C139.551 9.89489 139.743 9.66346 139.988 9.50106C140.234 9.33866 140.522 9.25256 140.816 9.2536C141.212 9.25786 141.591 9.41862 141.869 9.70082C142.147 9.98301 142.302 10.3638 142.301 10.76Z" fill="#FF725E"/>
<path d="M127.57 74.7336H127.032V57.028C126.58 56.6891 124.278 55.301 122.841 54.4456L122.707 54.3703V40.7105L112.011 40.5867L107.169 37.2942L107.476 36.8476L112.162 40.0756L123.229 40.1994V54.0851C127.533 56.6514 127.533 56.7375 127.533 56.9312L127.57 74.7336Z" fill="#FF725E"/>
<path d="M133.967 73.5446H133.429V55.1934L128.243 51.5565V35.465L116.638 27.8415C114.422 29.9074 111.21 32.9256 111.037 33.13L110.623 32.7803C110.865 32.4952 115.858 27.8307 116.423 27.3035L116.579 27.1582L128.786 35.1744V51.2768L133.972 54.9137L133.967 73.5446Z" fill="#FF725E"/>
<path d="M133.59 48.0488H133.052V31.2578L140.595 26.3728V12.1803H141.133V26.6633L133.59 31.5483V48.0488Z" fill="#FF725E"/>
<path d="M133.558 26.2921H133.02V18.7708L136.119 17.2375V13.9665H136.657V17.5711L133.558 19.1044V26.2921Z" fill="#FF725E"/>
<path d="M138.653 74.0073H138.115V53.5149L142.43 49.7058V47.0589L138.814 43.7878V35.3197H139.352V43.5457L142.968 46.8221V49.9479L138.653 53.757V74.0073Z" fill="#FF725E"/>
<path d="M146.147 33.7057H145.609V75.7827H146.147V33.7057Z" fill="#FF725E"/>
<path d="M150.774 76.4606H150.236L150.338 40.2532L157.44 35.7501H164.881V36.2881H157.596L150.876 40.5544L150.774 76.4606Z" fill="#FF725E"/>
<path d="M155.767 80.4202H155.229V43.9654L172.251 43.5296L165.058 36.9552L165.419 36.5625L173.602 44.0353L155.767 44.4872V80.4202Z" fill="#FF725E"/>
<path d="M160.286 30.8543L153.932 29.6815L146.298 21.8051V21.7244C146.083 20.5785 145.389 16.8179 145.389 16.5489H145.927C145.927 16.7802 146.465 19.7069 146.809 21.5523L154.25 29.1865L160.437 30.3324L160.286 30.8543Z" fill="#FF725E"/>
<path d="M121.066 24.3983L120.904 23.8872L125.246 22.5099L128.7 19.0721L125.822 17.1192L136.377 6.23542L140.59 10.066L140.229 10.4641L136.399 6.98324L126.656 17.0331L129.545 18.9914L125.531 22.9834L121.066 24.3983Z" fill="#FF725E"/>
<path d="M165.15 84.7942H161.061V88.883H165.15V84.7942Z" fill="#FF725E"/>
<path d="M103.586 78.3274H98.954V73.706H103.586V78.3274ZM99.492 77.7894H103.048V74.244H99.492V77.7894Z" fill="#FF725E"/>
<path d="M73.894 124.918H65.7164V133.096H73.894V124.918Z" fill="#263238"/>
<path d="M204.66 125.989H196.483V134.166H204.66V125.989Z" fill="#263238"/>
<path d="M192.555 109.714H190.511V111.759H192.555V109.714Z" fill="#263238"/>
<path d="M171.713 103.958H167.748V107.923H171.713V103.958Z" fill="#455A64"/>
<path d="M166.764 100.159H164.343V102.58H166.764V100.159Z" fill="#455A64"/>
<path d="M175.409 92.6759H172.456V89.7169H175.409V92.6759ZM172.994 92.1379H174.871V90.2549H172.994V92.1379Z" fill="#455A64"/>
<path d="M198.247 116.289H194.546V112.593H198.247V116.289ZM195.084 115.751H197.709V113.131H195.084V115.751Z" fill="#263238"/>
<path d="M57.7863 124.563H54.0902V120.867H57.7863V124.563ZM54.6282 124.025H57.2483V121.405H54.6282V124.025Z" fill="#263238"/>
<path d="M100.396 116.186H95.0266V121.556H100.396V116.186Z" fill="#455A64"/>
<path d="M103.118 107.288H100.391V110.016H103.118V107.288Z" fill="#455A64"/>
<path d="M73.8563 89.0121H71.1287V91.7398H73.8563V89.0121Z" fill="#263238"/>
<path d="M209.056 136.292H206.328V139.019H209.056V136.292Z" fill="#263238"/>
<path d="M66.0607 138.605H63.3331V141.333H66.0607V138.605Z" fill="#263238"/>
<path d="M97.297 100.654H92.6541V105.297H97.297V100.654Z" fill="#455A64"/>
<path d="M109.617 98.6961H105.41V94.4728H109.639L109.617 98.6961ZM105.927 98.1581H109.079V95.0108H105.948L105.927 98.1581Z" fill="#455A64"/>
<path d="M115.406 145.949L91.9654 157.139L96.5653 214.807L96.0327 251.838L168.582 251.881L168.184 219.934L170.244 207.044L179.939 157.139L152.555 145.228L147.062 141.526L119.758 141.591L115.406 145.949Z" fill="#E0E0E0"/>
<g opacity="0.2">
<path d="M95.9143 237.328C97.1248 238.861 99.4221 238.942 101.337 238.538C107.793 237.253 113.652 232.62 120.167 233.395C124.337 233.901 128.399 236.623 132.434 235.466C133.827 235.068 135.086 234.218 136.517 234.019C138.615 233.729 140.606 234.859 142.484 235.832C150.462 239.962 159.38 241.937 168.356 241.562L172.02 231.803L139.202 223.292L112.899 221.785L95.9412 231.695L95.9143 237.328Z" fill="black"/>
</g>
<path d="M131.008 251.838C130.933 251.838 131.325 231.867 131.89 207.243C132.455 182.619 132.966 162.643 133.052 162.648C133.139 162.654 132.735 182.613 132.17 207.248C131.605 231.883 131.089 251.843 131.008 251.838Z" fill="#263238"/>
<path d="M178.912 157.139C178.912 157.139 185.088 158.812 188.337 172.241C189.709 177.89 196.848 224.965 195.869 231.518C194.89 238.07 184.991 244.725 170.18 242.67C162.008 241.535 147.939 234.353 147.939 234.353L158.79 219.886H169.217L173.338 216.798L170.013 204.042C170.013 204.042 176.491 161.276 178.912 157.139Z" fill="#E0E0E0"/>
<path d="M188.337 217.443C188.31 217.492 187.557 216.992 186.261 216.367C184.582 215.502 182.758 214.954 180.881 214.753C179.852 214.673 178.816 214.733 177.803 214.931L177.125 215.087C176.91 215.146 176.706 215.222 176.501 215.281C176.135 215.403 175.776 215.545 175.425 215.706C174.113 216.308 173.381 216.852 173.349 216.782C173.501 216.633 173.669 216.502 173.849 216.389C174.322 216.058 174.82 215.765 175.339 215.512C175.698 215.333 176.068 215.179 176.448 215.049C176.652 214.979 176.862 214.893 177.082 214.834L177.771 214.662C178.807 214.444 179.868 214.375 180.924 214.458C182.832 214.65 184.683 215.226 186.363 216.152C186.872 216.423 187.366 216.721 187.842 217.045C188.023 217.158 188.189 217.291 188.337 217.443Z" fill="#263238"/>
<path d="M162.341 219.934C162.491 219.903 162.645 219.89 162.798 219.897L164.074 219.859L168.641 219.811H168.577L172.703 217.153L172.665 217.185C172.945 216.857 173.23 216.502 173.564 216.179C174.155 215.565 174.807 215.013 175.511 214.533C177.276 213.311 179.303 212.52 181.429 212.225C182.32 212.098 183.222 212.066 184.119 212.128C184.437 212.155 184.657 212.198 184.846 212.219C184.932 212.225 185.017 212.243 185.099 212.273C184.77 212.281 184.441 212.27 184.114 212.241C181.896 212.178 179.695 212.64 177.69 213.591C176.988 213.923 176.315 214.314 175.678 214.759C174.989 215.23 174.351 215.771 173.774 216.373C173.451 216.69 173.171 217.04 172.897 217.357L168.706 220.042H168.668L164.1 219.994L162.825 219.961C162.664 219.966 162.502 219.957 162.341 219.934Z" fill="#263238"/>
<path d="M133.052 162.648C133.06 162.673 133.06 162.699 133.052 162.723C133.051 162.741 133.045 162.758 133.036 162.773C133.026 162.788 133.014 162.8 132.999 162.81C132.977 162.819 132.953 162.824 132.929 162.824C132.905 162.824 132.881 162.819 132.859 162.81C132.592 162.69 132.349 162.522 132.143 162.315C131.359 161.575 130.619 160.79 129.927 159.964C128.119 157.876 125.709 154.842 123.008 151.264H123.207C122.942 151.628 122.724 152.024 122.556 152.442C122.357 152.873 122.174 153.325 122.018 153.777C121.658 154.691 121.313 155.638 120.98 156.601C120.409 158.28 119.861 159.926 119.489 161.491L119.409 161.825L119.237 161.535C117.265 158.165 116.011 154.425 115.551 150.549C115.417 149.422 115.354 148.288 115.363 147.154C115.363 146.756 115.363 146.449 115.401 146.245C115.402 146.138 115.41 146.032 115.428 145.927C115.44 146.033 115.44 146.139 115.428 146.245C115.428 146.449 115.428 146.756 115.428 147.154C115.453 148.282 115.541 149.408 115.691 150.527C116.207 154.365 117.488 158.06 119.457 161.395L119.204 161.432C119.581 159.818 120.124 158.204 120.7 156.51C121.034 155.541 121.378 154.589 121.744 153.674C121.927 153.217 122.11 152.77 122.309 152.329C122.489 151.879 122.73 151.456 123.024 151.07L123.126 150.952L123.229 151.087C125.919 154.675 128.297 157.725 130.061 159.834C130.944 160.91 131.675 161.712 132.213 162.229C132.405 162.443 132.63 162.625 132.88 162.767C132.972 162.804 133.031 162.767 133.042 162.713C133.052 162.659 133.042 162.643 133.052 162.648Z" fill="#263238"/>
<path d="M152.555 145.228C152.576 145.323 152.585 145.421 152.582 145.518C152.582 145.712 152.582 145.992 152.582 146.363C152.582 147.095 152.539 148.171 152.42 149.505C152.205 152.195 151.57 155.907 150.898 160.19L150.849 160.507L150.656 160.249C149.693 158.974 148.762 157.559 147.799 156.063C147.046 154.912 146.303 153.793 145.523 152.754L145.712 152.781C141.994 155.471 138.653 157.715 136.474 159.598C135.371 160.512 134.516 161.282 133.935 161.82L133.273 162.438C133.2 162.514 133.12 162.584 133.036 162.648C133.036 162.648 133.095 162.557 133.235 162.406C133.375 162.255 133.59 162.029 133.87 161.75C134.408 161.212 135.269 160.399 136.361 159.458C138.513 157.537 141.838 155.256 145.556 152.555L145.663 152.48L145.744 152.588C146.529 153.631 147.283 154.74 148.036 155.912C148.993 157.387 149.919 158.818 150.871 160.087L150.629 160.146C151.323 155.842 151.985 152.157 152.243 149.489C152.383 148.16 152.458 147.095 152.485 146.358C152.485 145.992 152.485 145.712 152.485 145.518C152.499 145.419 152.522 145.322 152.555 145.228Z" fill="#263238"/>
<path d="M166.5 185.868C166.5 185.944 162.234 185.615 156.988 185.137C151.743 184.658 147.492 184.206 147.503 184.125C147.514 184.044 151.764 184.378 157.015 184.857C162.266 185.336 166.505 185.788 166.5 185.868Z" fill="#263238"/>
<path d="M119.36 121.007C117.795 116.386 116.251 111.732 115.503 106.917C114.755 102.102 114.847 97.066 116.487 92.4768C116.735 91.7774 118.876 87.0968 119.608 87.1668C120.146 87.2152 118.838 91.5676 119.107 92.0088C121.701 96.3128 122.454 101.564 122.11 106.594C121.73 111.482 120.808 116.312 119.36 120.996" fill="#263238"/>
<path d="M159.059 100.515C158.842 95.0256 156.567 89.8195 152.686 85.9317C148.806 82.0439 143.604 79.7594 138.115 79.5325L136.985 79.4895C124.756 79.6993 118.107 90.1957 118.65 102.414L119.791 142.85L133.036 161.206L147.024 146.008C147.024 142.565 147.024 141.526 147.051 141.526C147.078 141.526 158.85 140.187 159.479 128.469C159.796 122.809 159.474 111.102 159.059 100.515Z" fill="#FFBF9D"/>
<path d="M147.062 141.526C147.062 141.526 139.654 141.655 131.998 136.383C131.998 136.383 135.307 145.346 147.062 144.776V141.526Z" fill="#FF9A6C"/>
<path d="M153.588 111.006C153.571 111.441 153.385 111.853 153.07 112.155C152.755 112.456 152.335 112.623 151.899 112.62C151.685 112.626 151.473 112.59 151.274 112.514C151.074 112.438 150.892 112.323 150.737 112.176C150.583 112.028 150.459 111.852 150.373 111.657C150.287 111.462 150.24 111.251 150.236 111.038C150.252 110.603 150.436 110.19 150.751 109.889C151.065 109.588 151.485 109.421 151.92 109.424C152.134 109.417 152.347 109.452 152.547 109.528C152.747 109.604 152.93 109.719 153.085 109.866C153.24 110.013 153.364 110.19 153.451 110.385C153.537 110.581 153.584 110.792 153.588 111.006Z" fill="#263238"/>
<path d="M156.353 105.588C156.133 105.798 154.906 104.808 153.125 104.738C151.344 104.668 149.967 105.513 149.779 105.276C149.687 105.174 149.913 104.786 150.511 104.394C151.313 103.886 152.252 103.638 153.201 103.683C154.137 103.72 155.038 104.054 155.772 104.636C156.289 105.093 156.455 105.496 156.353 105.588Z" fill="#263238"/>
<path d="M137.529 111.006C137.513 111.441 137.329 111.853 137.014 112.154C136.7 112.456 136.28 112.623 135.845 112.62C135.631 112.626 135.419 112.59 135.22 112.514C135.02 112.438 134.838 112.323 134.683 112.176C134.529 112.028 134.405 111.852 134.319 111.657C134.233 111.462 134.186 111.251 134.182 111.038C134.198 110.603 134.381 110.192 134.695 109.891C135.008 109.59 135.426 109.422 135.861 109.424C136.075 109.417 136.288 109.452 136.488 109.528C136.688 109.604 136.87 109.719 137.026 109.866C137.181 110.013 137.305 110.19 137.391 110.385C137.478 110.581 137.524 110.792 137.529 111.006Z" fill="#263238"/>
<path d="M139.062 105.588C138.841 105.798 137.615 104.808 135.834 104.738C134.053 104.668 132.676 105.513 132.488 105.276C132.396 105.174 132.622 104.786 133.219 104.394C134.022 103.886 134.961 103.638 135.909 103.683C136.846 103.72 137.746 104.054 138.481 104.636C138.992 105.093 139.164 105.496 139.062 105.588Z" fill="#263238"/>
<path d="M144.566 119.388C144.566 119.285 145.69 119.135 147.514 118.979C147.977 118.952 148.418 118.876 148.504 118.564C148.564 118.093 148.477 117.614 148.256 117.193L147.04 113.631C145.357 108.568 144.157 104.41 144.35 104.345C144.544 104.281 146.088 108.326 147.767 113.394C148.176 114.642 148.558 115.831 148.929 116.972C149.192 117.539 149.249 118.18 149.09 118.785C149.017 118.945 148.908 119.086 148.772 119.197C148.636 119.308 148.476 119.386 148.305 119.425C148.048 119.486 147.783 119.513 147.519 119.506C145.701 119.527 144.571 119.49 144.566 119.388Z" fill="#263238"/>
<path d="M139.057 101.628C138.814 102.085 137.281 101.564 135.387 101.472C133.494 101.381 131.896 101.671 131.729 101.198C131.659 100.966 132.003 100.563 132.692 100.208C133.579 99.7826 134.562 99.5971 135.543 99.6699C136.517 99.7151 137.46 100.02 138.276 100.552C138.895 100.972 139.17 101.413 139.057 101.628Z" fill="#263238"/>
<path d="M156.655 98.7929C156.267 99.1911 154.809 98.7284 153.045 98.6584C151.28 98.5885 149.779 98.8521 149.451 98.411C149.305 98.2011 149.548 97.7976 150.215 97.4264C151.13 96.9843 152.142 96.7806 153.157 96.8342C154.171 96.8878 155.156 97.197 156.02 97.7331C156.628 98.1689 156.821 98.5939 156.655 98.7929Z" fill="#263238"/>
<path d="M119.253 111.129C119.054 111.038 111.296 108.439 111.22 116.439C111.145 124.439 119.215 122.895 119.231 122.653C119.247 122.411 119.253 111.129 119.253 111.129Z" fill="#FFBF9D"/>
<path d="M116.81 119.592C116.773 119.592 116.67 119.689 116.434 119.796C116.089 119.939 115.702 119.939 115.358 119.796C114.513 119.479 113.814 118.123 113.787 116.676C113.773 115.988 113.915 115.306 114.201 114.68C114.278 114.426 114.416 114.195 114.604 114.007C114.792 113.82 115.023 113.681 115.277 113.604C115.438 113.565 115.608 113.582 115.758 113.654C115.908 113.725 116.029 113.847 116.1 113.997C116.202 114.223 116.148 114.384 116.192 114.395C116.235 114.406 116.369 114.26 116.304 113.932C116.262 113.733 116.151 113.554 115.992 113.427C115.773 113.259 115.498 113.182 115.223 113.211C114.893 113.274 114.584 113.42 114.326 113.636C114.068 113.852 113.869 114.129 113.749 114.443C113.402 115.136 113.228 115.902 113.243 116.676C113.281 118.29 114.093 119.813 115.25 120.162C115.465 120.226 115.691 120.241 115.913 120.206C116.134 120.172 116.345 120.089 116.53 119.963C116.794 119.786 116.837 119.608 116.81 119.592Z" fill="#FF9A6C"/>
<path d="M153.873 87.2152C155.17 86.4996 151.275 82.2925 148.084 80.8453C143.242 78.6502 135.898 77.2998 131.449 78.5588C126.069 80.0759 121.641 82.739 118.951 87.6079C116.261 92.4768 115.25 98.1581 115.401 103.748C115.449 105.443 115.621 107.213 116.53 108.649C117.65 110.424 119.796 111.544 119.705 113.991C119.674 114.434 119.732 114.878 119.874 115.298C120.016 115.718 120.24 116.106 120.533 116.439C122.002 118.005 123.799 116.536 124.627 115.067C126.392 111.926 126.591 108.17 126.747 104.571C126.86 102.01 126.962 99.3955 126.247 96.9368C125.854 95.5972 125.225 94.3329 124.907 92.9772C124.59 91.6214 124.627 90.0773 125.477 88.9691C125.673 88.73 125.891 88.5102 126.128 88.3127C127.247 87.3363 128.606 86.6757 130.065 86.3986C131.524 86.1216 133.031 86.2382 134.43 86.7364C138.949 88.3504 146.664 90.7283 148.681 89.195C151.587 86.9946 152.281 85.5528 152.281 85.5528L153.873 87.2152Z" fill="#263238"/>
<path d="M138.906 120.512C139.186 120.512 139.196 122.336 140.778 123.638C142.36 124.94 144.324 124.714 144.34 124.983C144.367 125.101 143.904 125.343 143.075 125.37C141.995 125.392 140.941 125.032 140.1 124.353C139.296 123.699 138.777 122.757 138.653 121.728C138.578 120.948 138.766 120.512 138.906 120.512Z" fill="#263238"/>
<path d="M91.96 157.139C91.96 157.139 85.0306 162.745 83.239 170.96C81.4475 179.176 71.6075 216.981 71.36 222.554C71.1125 228.128 71.36 240.002 81.6627 240.244C91.9654 240.486 118.042 228.467 118.042 228.467L113.066 213.403L96.8074 213.85L91.96 157.139Z" fill="#E0E0E0"/>
<path d="M113.071 213.382C112.94 213.412 112.807 213.43 112.673 213.435L111.532 213.521L107.32 213.796L101.074 214.162L97.3884 214.371C96.0742 214.418 94.7643 214.547 93.4664 214.759C92.7874 214.867 92.0956 214.867 91.4166 214.759C90.7549 214.678 90.1147 214.56 89.4852 214.501C88.2692 214.421 87.0482 214.529 85.8645 214.818C83.8551 215.336 81.9968 216.323 80.4414 217.696C79.3838 218.616 78.4538 219.672 77.6761 220.838C77.3964 221.247 77.1973 221.575 77.0682 221.801C77.0072 221.922 76.9332 222.036 76.8476 222.14C76.8909 222.012 76.9487 221.889 77.0198 221.774C77.1876 221.431 77.3763 221.099 77.5847 220.779C78.3381 219.582 79.2543 218.496 80.3069 217.551C81.8758 216.134 83.7612 215.114 85.8053 214.576C87.0158 214.271 88.2661 214.155 89.5121 214.232C90.1577 214.291 90.7979 214.409 91.4543 214.49C92.1033 214.589 92.7636 214.589 93.4126 214.49C94.7243 214.273 96.0489 214.144 97.3777 214.102L101.063 213.914L107.309 213.602L111.527 213.419L112.673 213.382C112.806 213.372 112.939 213.372 113.071 213.382Z" fill="#263238"/>
<path d="M97.2539 213.817C97.2242 213.697 97.2062 213.575 97.2002 213.451C97.1733 213.177 97.1356 212.827 97.0925 212.375C97.0065 211.423 96.8774 210.1 96.7267 208.486C96.4093 205.199 95.9197 200.669 95.3656 195.66C94.8114 190.651 94.3541 186.148 94.112 182.839C93.9775 181.193 93.8807 179.864 93.8323 178.939C93.8323 178.503 93.7946 178.148 93.7785 177.863C93.7714 177.739 93.7714 177.615 93.7785 177.492C93.8129 177.611 93.8327 177.734 93.8377 177.857C93.8646 178.126 93.8968 178.476 93.9399 178.933C94.0313 179.88 94.1551 181.204 94.3111 182.823C94.6231 186.105 95.1181 190.64 95.6669 195.649C96.2156 200.658 96.6783 205.193 96.9473 208.48C97.0818 210.127 97.1732 211.461 97.227 212.381C97.227 212.822 97.2647 213.172 97.2755 213.457C97.2818 213.577 97.2746 213.698 97.2539 213.817Z" fill="#263238"/>
<path d="M117.058 228.914C116.98 228.973 116.897 229.025 116.81 229.07L116.073 229.468C115.433 229.812 114.491 230.275 113.313 230.824C110.962 231.9 107.653 233.331 103.936 234.703C100.218 236.074 96.802 237.177 94.3003 237.887C93.0522 238.248 92.0353 238.506 91.3306 238.678L90.5128 238.861C90.4184 238.889 90.3206 238.903 90.2223 238.904C90.3111 238.86 90.4051 238.828 90.502 238.807L91.3037 238.571C91.9977 238.372 93.0091 238.081 94.2465 237.699C96.7267 236.941 100.127 235.816 103.839 234.439C107.551 233.062 110.833 231.695 113.233 230.646C114.416 230.108 115.385 229.683 116.025 229.371L116.783 229.016C116.869 228.968 116.962 228.934 117.058 228.914Z" fill="#263238"/>
<path d="M175.829 168.97C175.836 169.014 175.836 169.06 175.829 169.104C175.829 169.206 175.829 169.336 175.791 169.492C175.754 169.857 175.7 170.358 175.635 170.987C175.495 172.284 175.269 174.156 174.979 176.469C174.398 181.096 173.521 187.482 172.439 194.514C171.358 201.546 170.287 207.905 169.523 212.505C169.125 214.786 168.797 216.636 168.571 217.944C168.458 218.568 168.367 219.063 168.297 219.418C168.265 219.574 168.238 219.703 168.222 219.805C168.214 219.85 168.202 219.893 168.184 219.934C168.176 219.89 168.176 219.844 168.184 219.8C168.184 219.692 168.216 219.569 168.238 219.413C168.291 219.047 168.367 218.552 168.458 217.928C168.668 216.615 168.959 214.759 169.319 212.472C170.056 207.867 171.084 201.508 172.16 194.471C173.236 187.434 174.15 181.064 174.812 176.464C175.124 174.172 175.377 172.311 175.554 170.993C175.641 170.368 175.71 169.868 175.764 169.508C175.764 169.352 175.807 169.223 175.823 169.12C175.816 169.07 175.818 169.019 175.829 168.97Z" fill="#263238"/>
<path d="M175.624 243.144C175.526 243.157 175.427 243.157 175.328 243.144L174.478 243.068C173.741 242.998 172.682 242.859 171.374 242.649C167.968 242.089 164.606 241.287 161.314 240.249C159.388 239.636 157.548 238.974 155.934 238.323C154.32 237.672 152.872 237.016 151.689 236.424C151.092 236.139 150.559 235.859 150.075 235.612C149.591 235.364 149.209 235.149 148.891 234.961L148.154 234.53C148.066 234.484 147.983 234.428 147.907 234.364C148.004 234.393 148.098 234.432 148.186 234.482L148.945 234.864C149.268 235.041 149.671 235.241 150.145 235.472C150.618 235.703 151.151 235.972 151.759 236.241C152.948 236.811 154.395 237.425 156.014 238.081C157.634 238.738 159.447 239.372 161.367 239.98C164.648 241.013 167.99 241.837 171.374 242.45C172.676 242.686 173.731 242.859 174.462 242.961L175.302 243.09C175.411 243.09 175.52 243.108 175.624 243.144Z" fill="#263238"/>
<g opacity="0.2">
<path d="M150.758 160.453C148.848 158.145 147.568 155.181 145.948 152.668C141.283 155.5 136.952 158.847 133.036 162.648C136.802 160.496 140.568 158.511 144.232 156.192L151.038 165.005C151.178 162.157 151.321 159.309 151.468 156.461L150.758 160.453Z" fill="black"/>
</g>
<g opacity="0.2">
<path d="M170.6 205.317C170.68 204.94 170.761 204.548 170.842 204.155L170.374 205.317H170.6Z" fill="black"/>
</g>
<g opacity="0.2">
<path d="M175.151 173.43C173.924 182.898 172.805 194.638 170.847 204.155C172.73 199.437 174.565 194.681 175.603 189.715C176.722 184.335 176.878 178.643 175.151 173.43Z" fill="black"/>
</g>
<path d="M114.857 204.042C114.857 204.042 111.575 205.72 111.091 207.076C110.816 207.988 110.816 208.962 111.091 209.874L112.867 215.711V221.785C112.867 221.785 114.292 227.956 115.648 228.585C117.004 229.215 119.414 229.123 121.028 226.584C121.949 225.141 122.673 223.581 123.18 221.947L125.978 210.353L126.779 204.435L119.183 208.351L117.031 211.299L114.933 207.953C114.933 207.953 116.643 206.275 116.509 205.231C116.374 204.187 114.857 204.042 114.857 204.042Z" fill="#FFBF9D"/>
<path d="M113.082 208.421C113.082 208.34 113.528 208.346 114.04 208.238C114.551 208.131 114.949 207.953 114.992 208.023C115.035 208.093 114.664 208.394 114.099 208.513C113.534 208.631 113.066 208.491 113.082 208.421Z" fill="#FF9A6C"/>
<path d="M116.514 224.48L117.052 199.84C117.051 199.009 117.372 198.209 117.946 197.607C118.52 197.006 119.304 196.65 120.135 196.612L162.201 195.687C162.699 195.692 163.188 195.811 163.633 196.035C164.077 196.258 164.465 196.58 164.767 196.976C165.068 197.372 165.275 197.831 165.372 198.319C165.469 198.807 165.454 199.311 165.327 199.792L159.022 226.606C158.867 227.326 158.467 227.971 157.89 228.429C157.313 228.887 156.595 229.131 155.858 229.118L119.559 227.87C118.707 227.823 117.907 227.439 117.337 226.804C116.766 226.169 116.47 225.333 116.514 224.48Z" fill="#263238"/>
<path d="M143.07 203.127L142.736 203.073C142.301 203.047 141.872 203.189 141.538 203.47C141.205 203.751 140.992 204.15 140.944 204.584C140.896 205.017 141.017 205.453 141.281 205.8C141.545 206.147 141.932 206.379 142.363 206.449C142.794 206.518 143.235 206.42 143.595 206.173C143.955 205.926 144.206 205.551 144.297 205.124C144.388 204.698 144.311 204.252 144.082 203.881C143.854 203.509 143.492 203.239 143.07 203.127Z" fill="white"/>
<path d="M160.824 198.452C160.824 198.533 151.829 198.748 140.73 198.936C129.631 199.125 120.635 199.221 120.63 199.141C120.625 199.06 129.625 198.85 140.724 198.656C151.823 198.463 160.824 198.377 160.824 198.452Z" fill="#455A64"/>
<path d="M127.845 204.128C127.845 204.128 130.18 201.798 132.956 203.353C135.732 204.908 145.071 211.574 148.294 212.462C151.517 213.349 154.75 214.022 157.182 212.462C159.614 210.901 161.405 208.905 161.518 206.909C161.631 204.913 162.847 200.572 165.515 200.453L166.85 201.454C166.85 201.454 166.312 207.91 166.312 210.675C166.312 213.441 163.848 217.352 163.848 217.352L162.056 220.424L162.976 223.808C162.976 223.808 161.862 228.919 159.086 231.587C156.31 234.256 150.844 234.364 150.844 234.364L133.09 223.254L116.536 218.363C116.536 218.363 116.977 216.142 119.226 216.029C121.475 215.916 125.117 217.417 125.117 217.417L116.514 210.896C116.663 210.219 117.073 209.628 117.656 209.253C118.239 208.878 118.946 208.749 119.624 208.895C122.314 209.228 131.847 214.813 131.847 214.813L122.088 205.021C122.088 205.021 121.867 202.466 124.202 202.331C124.908 202.324 125.605 202.483 126.238 202.796C126.87 203.108 127.421 203.564 127.845 204.128Z" fill="#FFBF9D"/>
<path d="M141.639 214.963C141.426 214.874 141.224 214.76 141.036 214.624C140.654 214.393 140.111 214.049 139.422 213.613C138.094 212.741 136.259 211.515 134.311 210.062C132.632 208.837 131.036 207.502 129.534 206.065C128.964 205.527 128.528 205.026 128.243 204.687C128.085 204.522 127.945 204.342 127.823 204.149C128.006 204.293 128.174 204.455 128.323 204.634C128.63 204.951 129.087 205.408 129.668 205.941C131.203 207.329 132.808 208.636 134.478 209.858C136.42 211.31 138.244 212.548 139.535 213.473L141.074 214.549C141.277 214.666 141.466 214.805 141.639 214.963Z" fill="#FF9A6C"/>
<path d="M135.742 217.39C134.835 217.055 133.986 216.582 133.225 215.985C132.416 215.464 131.69 214.824 131.073 214.086C131.132 214.027 132.116 214.85 133.408 215.76C134.699 216.669 135.78 217.32 135.742 217.39Z" fill="#FF9A6C"/>
<path d="M133.085 221.823C131.509 221.121 129.972 220.336 128.479 219.472C126.944 218.691 125.453 217.825 124.014 216.879C125.588 217.581 127.123 218.366 128.614 219.23C130.151 220.01 131.644 220.876 133.085 221.823Z" fill="#FF9A6C"/>
<path d="M162.153 127.393L175.77 127.624L169.136 119.092L162.153 127.393Z" fill="#455A64"/>
<path d="M168.63 134.086H166.322V136.394H168.63V134.086Z" fill="#455A64"/>
<path d="M170.739 136.523H168.63V138.578H170.739V136.523Z" fill="#455A64"/>
<path d="M168.205 139.444H166.43V141.22H168.205V139.444Z" fill="#455A64"/>
<path d="M172.515 134.64H170.739V136.415H172.515V134.64Z" fill="#455A64"/>
<path d="M166.215 136.523H164.95V137.787H166.215V136.523Z" fill="#455A64"/>
<path d="M170.271 143.883H168.469V142.08H170.271V143.883ZM169.007 143.345H169.733V142.618H169.007V143.345Z" fill="#455A64"/>
<path d="M172.095 138.702H170.831V139.966H172.095V138.702Z" fill="#455A64"/>
<path d="M172.488 126.279L165.413 126.36V134.672H172.509L172.488 126.279ZM170.228 133.198H168.964V131.934H170.228V133.198Z" fill="#455A64"/>
<path d="M116.412 180.892L131.611 181.15L124.208 171.622L116.412 180.892Z" fill="#FF725E"/>
<path d="M123.471 188.359H120.894V190.936H123.471V188.359Z" fill="#FF725E"/>
<path d="M125.929 191.184H123.352V193.761H125.929V191.184Z" fill="#FF725E"/>
<path d="M122.874 194.654H120.894V196.634H122.874V194.654Z" fill="#FF725E"/>
<path d="M127.662 188.978H125.682V190.958H127.662V188.978Z" fill="#FF725E"/>
<path d="M120.899 191.404H119.484V192.819H120.899V191.404Z" fill="#FF725E"/>
<path d="M127.377 193.621H125.962V195.036H127.377V193.621Z" fill="#FF725E"/>
<path d="M127.468 179.649L120.216 179.735L119.748 189.016H127.683L127.468 179.649ZM124.918 187.369H123.503V185.96H124.918V187.369Z" fill="#FF725E"/>
<path d="M91.0078 142.731L113.173 143.103L102.376 129.211L91.0078 142.731Z" fill="#455A64"/>
<path d="M101.3 153.626H97.5444V157.381H101.3V153.626Z" fill="#455A64"/>
<path d="M104.528 157.424H101.305V160.647H104.528V157.424Z" fill="#455A64"/>
<path d="M100.433 161.357H97.5444V164.246H100.433V161.357Z" fill="#455A64"/>
<path d="M107.411 154.524H104.522V157.413H107.411V154.524Z" fill="#455A64"/>
<path d="M97.5444 157.736H95.4839V159.797H97.5444V157.736Z" fill="#455A64"/>
<path d="M103.694 168.023H101.106V165.424H103.705L103.694 168.023ZM101.633 167.485H103.156V165.962H101.644L101.633 167.485Z" fill="#455A64"/>
<path d="M106.583 160.953H104.522V163.014H106.583V160.953Z" fill="#455A64"/>
<path d="M107.449 141.112L95.9788 141.053L95.8874 154.578H107.449V141.112ZM103.425 152.179H101.364V150.102H103.425V152.179Z" fill="#455A64"/>
<path d="M154.529 160.754L172.402 161.056L163.697 149.86L154.529 160.754Z" fill="#FF725E"/>
<path d="M162.831 169.54H159.802V172.569H162.831V169.54Z" fill="#FF725E"/>
<path d="M165.725 172.854H162.696V175.883H165.725V172.854Z" fill="#FF725E"/>
<path d="M162.126 176.932H159.802V179.256H162.126V176.932Z" fill="#FF725E"/>
<path d="M167.753 170.266H165.429V172.59H167.753V170.266Z" fill="#FF725E"/>
<path d="M159.802 173.118H158.139V174.78H159.802V173.118Z" fill="#FF725E"/>
<path d="M164.762 182.312H162.562V180.112H164.762V182.312ZM163.1 181.774H164.224V180.65H163.1V181.774Z" fill="#FF725E"/>
<path d="M167.425 175.722H165.763V177.384H167.425V175.722Z" fill="#FF725E"/>
<path d="M167.544 159.296L159.016 159.399L158.478 170.309H167.796L167.544 159.296ZM165.037 168.442H163.38V166.785H165.037V168.442Z" fill="#FF725E"/>
<path d="M21.0677 142.064L43.2387 142.436L32.4357 128.544L21.0677 142.064Z" fill="#FF725E"/>
<path d="M31.365 152.959H27.6098V156.714H31.365V152.959Z" fill="#FF725E"/>
<path d="M34.5877 156.757H31.3651V159.98H34.5877V156.757Z" fill="#FF725E"/>
<path d="M30.4935 160.69H27.6098V163.579H30.4935V160.69Z" fill="#FF725E"/>
<path d="M37.4714 153.857H34.5877V156.746H37.4714V153.857Z" fill="#FF725E"/>
<path d="M27.6099 157.069H25.5493V159.13H27.6099V157.069Z" fill="#FF725E"/>
<path d="M33.4848 165.026H31.4243V167.087H33.4848V165.026Z" fill="#FF725E"/>
<path d="M36.6482 160.286H34.5877V162.347H36.6482V160.286Z" fill="#FF725E"/>
<path d="M37.5091 140.445L26.0389 140.386L25.9528 153.911H37.5091V140.445ZM33.4902 151.512H31.4297V149.451H33.4902V151.512Z" fill="#FF725E"/>
<path d="M225.734 219.676L242.864 219.967L234.53 209.234L225.734 219.676Z" fill="#FF725E"/>
<path d="M233.691 228.096H230.786V231.001H233.691V228.096Z" fill="#FF725E"/>
<path d="M236.182 231.033H233.691V233.524H236.182V231.033Z" fill="#FF725E"/>
<path d="M233.018 234.068H230.786V236.3H233.018V234.068Z" fill="#FF725E"/>
<path d="M238.414 228.79H236.182V231.023H238.414V228.79Z" fill="#FF725E"/>
<path d="M230.786 231.275H229.193V232.868H230.786V231.275Z" fill="#FF725E"/>
<path d="M235.332 237.419H233.739V239.012H235.332V237.419Z" fill="#FF725E"/>
<path d="M237.774 233.761H236.182V235.353H237.774V233.761Z" fill="#FF725E"/>
<path d="M238.436 218.428L229.575 218.38L229.505 228.833H238.436V218.428ZM235.332 226.982H233.718V225.368H235.332V226.982Z" fill="#FF725E"/>
<path d="M223.942 59.0778L246.108 59.4544L235.31 45.5632L223.942 59.0778Z" fill="#FF725E"/>
<path d="M234.234 69.9723H230.479V73.7275H234.234V69.9723Z" fill="#FF725E"/>
<path d="M237.462 73.7706H234.24V76.9932H237.462V73.7706Z" fill="#FF725E"/>
<path d="M233.368 77.7033H230.479V80.5924H233.368V77.7033Z" fill="#FF725E"/>
<path d="M240.346 70.8761H237.457V73.7652H240.346V70.8761Z" fill="#FF725E"/>
<path d="M230.479 74.088H228.418V76.1485H230.479V74.088Z" fill="#FF725E"/>
<path d="M236.359 82.0396H234.299V84.1002H236.359V82.0396Z" fill="#FF725E"/>
<path d="M239.517 77.3052H237.457V79.3658H239.517V77.3052Z" fill="#FF725E"/>
<path d="M240.383 57.4638L228.913 57.3992L228.822 70.9299H240.383V57.4638ZM236.359 68.5304H234.299V66.4699H236.359V68.5304Z" fill="#FF725E"/>
</svg>

